<?xml version="1.0" standalone="no"?>
<!DOCTYPE svg PUBLIC "-//W3C//DTD SVG 20010904//EN"
 "http://www.w3.org/TR/2001/REC-SVG-20010904/DTD/svg10.dtd">
<svg version="1.0" xmlns="http://www.w3.org/2000/svg"
 width="225.000000pt" height="225.000000pt" viewBox="0 0 225.000000 225.000000"
 preserveAspectRatio="xMidYMid meet">
<metadata>
Created by potrace 1.11, written by Peter Selinger 2001-2013
</metadata>
<g transform="translate(0.000000,225.000000) scale(0.100000,-0.100000)"
fill="#000000" stroke="none">
<path d="M1105 2150 c-11 -4 -29 -18 -40 -30 -20 -22 -20 -41 -27 -984 -6
-711 -4 -968 4 -990 22 -54 101 -66 137 -20 26 33 30 174 33 1151 l3 823 -25
24 c-30 29 -58 37 -85 26z"/>
<path d="M1260 1920 l0 -160 350 0 350 0 38 43 c22 23 53 58 70 78 l31 35 -70
82 -70 82 -350 0 -349 0 0 -160z m670 43 c52 -66 -41 -152 -100 -93 -24 24
-26 77 -3 102 25 28 77 24 103 -9z"/>
<path d="M218 1781 l-67 -79 70 -81 71 -81 349 0 349 0 0 160 0 160 -352 0
-353 -1 -67 -78z m226 -12 c52 -41 25 -119 -41 -119 -97 0 -94 134 3 139 6 1
23 -8 38 -20z"/>
<path d="M1262 1514 l3 -166 210 -99 c116 -54 212 -98 215 -96 3 1 29 27 57
58 l53 56 -38 101 c-36 99 -38 102 -82 121 -25 11 -129 58 -233 105 l-187 85
2 -165z m415 -116 c29 -37 21 -129 -12 -142 -38 -14 -60 88 -29 132 17 25 27
27 41 10z"/>
</g>
</svg>
